/* XPM */
static char *ce9fb3d85adb4c41fb83a7f3650725e4yX228hm3yiCyi441[] = {
/* columns rows colors chars-per-pixel */
"64 64 237 2 ",
"   c #0D130B",
".  c #13130D",
"X  c #19150F",
"o  c #151913",
"O  c #1C1B14",
"+  c #161611",
"@  c #0E0E0A",
"#  c #26170D",
"$  c #3A140D",
"%  c #231D14",
"&  c #2B1D13",
"*  c #241F19",
"=  c #381B13",
"-  c #1D231A",
";  c #252116",
":  c #2C2216",
">  c #252319",
",  c #2B251A",
"<  c #2C291C",
"1  c #20291F",
"2  c #322315",
"3  c #32271A",
"4  c #332B1D",
"5  c #3C2C1C",
"6  c #3A2517",
"7  c #3B311D",
"8  c #2C2D23",
"9  c #252C22",
"0  c #362C22",
"q  c #3D3323",
"w  c #3C3B2C",
"e  c #363529",
"r  c #3B3B31",
"t  c #2D3224",
"y  c #4B160F",
"u  c #45150E",
"i  c #55150D",
"p  c #5B140D",
"a  c #5C180D",
"s  c #491812",
"d  c #531611",
"f  c #551B13",
"g  c #5B1B13",
"h  c #5C1913",
"j  c #6B160E",
"k  c #67160E",
"l  c #73170E",
"z  c #641B14",
"x  c #6C1A13",
"c  c #691A14",
"v  c #751C14",
"b  c #7B1C14",
"n  c #7B1710",
"m  c #472A19",
"M  c #5A271B",
"N  c #43321E",
"B  c #4A351E",
"V  c #58361E",
"C  c #68261B",
"Z  c #77231A",
"A  c #66381B",
"S  c #572E24",
"D  c #443422",
"F  c #493827",
"G  c #593827",
"H  c #573D32",
"J  c #482E27",
"K  c #632C22",
"L  c #653829",
"P  c #7A3729",
"I  c #69352B",
"U  c #3F4033",
"Y  c #4B422D",
"T  c #584229",
"R  c #484838",
"E  c #574A36",
"W  c #57523C",
"Q  c #674629",
"!  c #664737",
"~  c #754A37",
"^  c #685437",
"/  c #785539",
"(  c #724B2D",
")  c #7A623A",
"_  c #545342",
"`  c #5C5D4A",
"'  c #595745",
"]  c #4E4F41",
"[  c #665B47",
"{  c #785946",
"}  c #5F614D",
"|  c #63624D",
" . c #6E6549",
".. c #796647",
"X. c #646552",
"o. c #6B6A55",
"O. c #6C6D59",
"+. c #6A6552",
"@. c #776954",
"#. c #6E715B",
"$. c #73735D",
"%. c #7A755A",
"&. c #757561",
"*. c #7C7A65",
"=. c #7C7B66",
"-. c #125075",
";. c #85190E",
":. c #861D15",
">. c #901914",
",. c #87271B",
"<. c #982619",
"1. c #8B341B",
"2. c #A4281A",
"3. c #B12E1E",
"4. c #993626",
"5. c #8B3427",
"6. c #AB3322",
"7. c #B73828",
"8. c #AF3326",
"9. c #C43B2B",
"0. c #C23B32",
"q. c #855A3C",
"w. c #8E4636",
"e. c #B04B36",
"r. c #85643B",
"t. c #906B3C",
"y. c #C44534",
"u. c #895C45",
"i. c #985744",
"p. c #AF5747",
"a. c #886547",
"s. c #966C4B",
"d. c #8A714B",
"f. c #947548",
"g. c #856756",
"h. c #887659",
"j. c #987656",
"k. c #986A56",
"l. c #A87959",
"z. c #AC6A4F",
"x. c #817F6A",
"c. c #867965",
"v. c #987C68",
"b. c #CC735C",
"n. c #7D846B",
"m. c #98835C",
"M. c #A7845B",
"N. c #B2865C",
"B. c #84826C",
"V. c #8A846D",
"C. c #87876B",
"Z. c #96876A",
"A. c #8A8671",
"S. c #8C8C74",
"D. c #858A72",
"F. c #948D74",
"G. c #8C9374",
"H. c #8D957A",
"J. c #8D977A",
"K. c #93947B",
"L. c #949B7C",
"P. c #99977B",
"I. c #A98865",
"U. c #B9956B",
"Y. c #A89779",
"T. c #BA9B74",
"R. c #AD8C69",
"E. c #B8A47B",
"W. c #AEA079",
"Q. c #C4A377",
"!. c #C09B6E",
"~. c #326E90",
"^. c #5A738A",
"/. c #3C87A9",
"(. c #64939B",
"). c #959C82",
"_. c #9A9D84",
"`. c #9B9A84",
"'. c #8C8A82",
"]. c #A29E87",
"[. c #9BA285",
"{. c #9DA48A",
"}. c #98A187",
"|. c #9EAB92",
" X c #9FA790",
".X c #8BA398",
"XX c #A2A58C",
"oX c #A2A98E",
"OX c #A8A589",
"+X c #B6A885",
"@X c #A7A691",
"#X c #A5AB93",
"$X c #AAAD95",
"%X c #ACAE99",
"&X c #A8A993",
"*X c #B0AE99",
"=X c #AAB096",
"-X c #ACB29B",
";X c #A6B199",
":X c #B1B49D",
">X c #B5B79C",
",X c #BEB08B",
"<X c #AFB7A0",
"1X c #B4B6A0",
"2X c #B4BAA3",
"3X c #B9BCA5",
"4X c #BCBEA8",
"5X c #B9B6A2",
"6X c #C8AB84",
"7X c #C9B994",
"8X c #BDC1AA",
"9X c #C1C3AD",
"0X c #C7C4AA",
"qX c #C4C6B0",
"wX c #C7C9B3",
"eX c #CACBB6",
"rX c #CCCEB9",
"tX c #CED0BB",
"yX c #D2D3BE",
"uX c #DDD5BC",
"iX c #D5CCAF",
"pX c #DBC8A6",
"aX c #D6D8C3",
"sX c #DEDECB",
"dX c #D8D7C3",
"fX c #E9E8D3",
"gX c #F4F2DB",
"hX c #EEEBD5",
"jX c #FBFAE4",
"kX c #FDFEEC",
"lX c #F4F6E2",
"zX c #FEFEF4",
"xX c white",
"cX c #FFFFFE",
"vX c #FFFFFD",
"bX c #FFFFFC",
"nX c #E0DFCC",
/* pixels */
"xXxXxXxXxXxXxXxXxXxXxXxXxXxXxXxXbXbXxXbXbXzXjXjXlXgXlXfX+Xm.m...) %.) ) n.oXoX2X<X<X=XoXL.oXoXW.L.L.L.L.[.=XoXoX[.L.[.oX=X=XoXoX",
"xXxXxXxXxXxXxXxXxXxXxXxXxXxXxXxXbXbXbXbXxXzXkXkXzXgXiXm.t.t.) Y  . .W ^ ^ L.#X>X>X-X=XoXoXL.#XL.L.J.L.L.[.=X[.[.L.[.[.oX|.oX[.[.",
"xXxXxXxXxXxXxXxXxXxXxXxXxXxXxXxXbXxXbXbXbXbXzXzXiXM.r.t.f.W 7 Y  .W Y W ^ ) oX>X<X>X=XoXoXoXoXL.G.G.L.L.[.=XoXL.G.L.W.oX=X[.L.[.",
"xXxXxXxXxXxXxXxXxXxXxXxXxXxXxXxXbXbXbXbXzXxXkX7Xt.r.f...R Y Y W W U w T W W L.>X>X>X=XoXoX=XL.G.n.G.G.L.oXoXG.n.G.L.L.|.oXL.L.L.",
"xXxXxXxXxXxXxXxXxXxXxXxXxXxXxXxXxXbXbXbXxXzXE.f.a.d.^ Y Y w Y q Y t 7 Y B Y n.W.>X>X;XoXoX#X;XoXG.G.L.L.=X|.n.n.G.L.[.=XL.G.G.L.",
"xXxXxXxXxXxXxXxXxXxXxXxXxXxXxXxXxXxXbXbXxX,Xt.) ) T Y U w 4 4 < U 4 t B Y ^ ^ J.3X=X=XoX#XoXoX[.L.G.L.[.=X>X=XL.L.L.oX=X[.G.G.L.",
"xXxXxXxXxXxXxXxXxXxXxXxXxXxXbXbXxXbXbXxXyX) T V T w Y 7 < < , > q 4 < T f.N.m.C.>X=X=X#X#X=X|.{.L.L.L.[.=X>X|.[.L.[.oX=XoX[.L.L.",
"xXxXxXxXxXxXxXxXxXxXxXxXxXxXxXbXbXbXbXkXj.Q B T F 4 4 > : < ; < w < : r.T.Q.E.W.>X=X=X#X#X=X|.L.L.L.L.[.=X=X|.[.L.|.oX>XoX[.L.L.",
"xXxXxXxXbXbXbXbXxXbXxXxXxXbXbXbXbXzXbXuXQ H 7 Y 4 > ; ; ; , ; < 4 : N M.Q.Q.6XQ.>X-X;X=X;X#X{.L.L.L.L.oX=X=X=XoXL.oXoX=XoXL.L.L.",
"xXxXxXxXbXbXbXbXxXzXzXxXxXbXzXbXbXzXbX+XT T q 7 - ; ; ; ; ; ; 4 < ; ^ N.T.6X6XQ.E.-X=X=X>X=X=X=XoXoXL.L.=XoX{.L.L.L.|.=XL.L.L.#X",
"xXbXbXbXbXbXbXbXbXzXzXbXbXbXbXbXbXzXzXR.Q F 7 < ; ; ; ; ; ; ; 4 , : ^ M.U.Q.6X6XE.>X=X=X=X<X>X>X=XoX{.oX;X>X=XoX=XW.|.=X=XL.oXL.",
"xXbXxXxXxXxXbXbXzXzXzXbXbXbXbXzXzXzXjXm.Q V 7 > ; ; % - ; ; ; 3 < 2 ) M.U.Q.6X6XT.P.-X=X=X>X<X-X=XoXoXoXoX=X>X=X|.oX|.=X>X>XoXoX",
"bXbXzXbXbXbXzXbXzXzXjXzXzXkXkXkXgXkXhXf.Q G 4 * % * O % ; ; : 3 , 4 r.M.U.U.Q.6Xd.d.-X=X=X-X>X=X=XoXW.|.oX=X>X>XoXoXoX=X=X=X|.L.",
"kXkXkXkXkXkXkXkXkXkXzXzXkXkXkXkXgXgXpXt.Q F , * O % % % ; ; : < : 7 / { / / M.!.M.E.#X#X=X#XoXoX=XoXoX=XoX=X=X=XoXoXoXoX=X>XoX#X",
"jXjXjXjXjXjXjXjXjXjXjXjXjXjXgXgXgXfX6X) Q F 8 % * * O O ; ; < 4 : 3 T d.a.( ) U.f.Z.&XXXOXoXoXoX#XoXL.=XoX#X=X=XoXoXoXoX=X=XoXL.",
"gXgXgXgXgXhXgXgXhXgXgXgXhXgXhXhXfXaXI.( Q B * O O O % % ; ; 7 < , 7 / M.T.^ V j./ Y OXXX[.[.[.oXL.L.oXoXoX=X=X=X=X#XoXoX=X=XoXoX",
"hXfXfXfXfXfXfXfXfXfXfXfXnXfXfXnXsXiXd.Q T 5 % O O O O # ; < 7 < , D ! T F G G A l.U.OX[.[.[.XXXXoXoXoXoXXX#X=X=X$XXXXXoX$XoXXX[.",
"nXnXnXnXnXsXsXsXsXdXsXsXsXsXdXdXdX7X^ T B 4 % O O O # ; : 4 7 4 3 D 6 3 E / Q V / Q.+X[._.[.[.[.L.L.}.W.{.#X=XoX[.[.XXoX#XoX[.P.",
"aXaXaXaXaXaXaXaXaXaXdXdXdXdXdXdXiX+XQ G B , % O O # # 2 7 7 q < 3 G q.s.l.s./ Q L N.+X].[.[.oX#X}.L.L.L.{.$X#X).[._.[.oX#XXXL.L.",
"aXyXyXtXtXaXtXaXdXtXdXyXdXrXrXtXeX+XT G 7 : % O O o ; 4 < B q : 3 G s.N.I.N.u.S V s.6X[.[.[.oXoXL.J.L.L.[.=X).H.).).XX#X[.D.G.L.",
"tXtXtXtXtXtXtXtXrXtXtXrXrXeXrXeXqXE.T V 7 , % O O ; # 2 5 Y 4 : 4 B q.l.U.U.I S L Q M.XX[.#X#X_.n.D.J.L.{.=XXXK.J.[. X$XXXG.G.L.",
"tXwXrXrXwXrXtXwXrXrXrXrXeXeXeXwX0XE.) T 2 : ; O O O ; 7 B 7 2 2 5 F Q s.l.l.P G ~ s.v.XX[.#X%X-X=XJ.J.L.{.>X-X#X).[.#X%XXXoXL.}.",
"wXwXwXwXwXwXwXwXwXqXqXqXwXqXqXqX8XE.m.B : : O % O ; 2 N 7 7 : 2 5 F G q.s.s.q.i.U.T.Y.{.{.#X-X#X#X|.L.}.oX>X-X#X{.[.$X-XoX{.L._.",
"8XwXwX8XwX9XwXwXqX0XqXqXqXqX9X9X3XW.f.T 2 : % ; # % : 5 N 4 2 2 N S V ( q./ / q.s.l.[.{.XX#X-X%X#X{.L.[.#X>X-X;X[.[.$X-X=X[.L.[.",
"8X8X9X8X8X8XqX8XqXqX4X4X8X8X4X4X>XW.f.h.D % * ; # % & 6 N : 2 2 N F G / r.G L P i.v.OXXXXX$X-X-X-X).L.{.<X1X$X X).[.#X-XXX[.L.[.",
"8X8X4X8X4X3X4X4X4X4X4X4X4X4X4X3X>XW.d.Z.! & : & O & : 2 B & 2 2 N V G ~ s./ ( ( q.I.XXXX#X$X-X$XXX{.oX{.-X1X&X_.{.[.oX-X%X{.[.[.",
"3X3X3X3X3X3X3X3X3X4X3X3X3X3X5X5X>XP...P.! N & & # % : # m & 2 6 N F Q Q / / / q.l.Y.[.XX#X;X-X1X-X;X$X#X-X3X3X;XXX{.{.%X-X#XXXXX",
"1X1X1X1X1X1X5X5X1X5X1X1X1X5X5X5X,XR.r.t.4.5.C m # # 2 # 2 2 & 2 N m G Q Q / u.d.N.Y.[.XXXX$X%X3X3X-X$X%X%X1X1X1X@X{.oX#X=X#X#XXX",
"1X*X*X:X*X1X1X*X:X:X:X:X1X1X5X*X>XZ.,.6.8.y.y.2.f X O # & & : 6 B N m V V A ( ~ s.W.{.[.XX%X%X1X3X-X#X#X-X:X1X1X=X{.XXoX=X=XXX{.",
"*X*X*X*X%X*X*X*X%X:X:X:X*X%X>X*XOX5.;.:.<.7.e.7.4.C s = = # $ 6 m N 6 $ m V Q a.P.XX{.{.@X;X%X%X1X%XoX#X-X-X:X1X=XoX{.oX#X#XoXXX",
"*X*X%X*X*X*X*X*X*X%X%X*X*X*X*X*XY.:.>.:.b v v Z ,.b Z Z C Z C A M m m m m V d.Z._.XXXXoX X#X$X;X-X$XXX#X$X-X:X-XoXXX{.oXoX=X#XXX",
"$X%X&X*X$X%X&X$X%X%X*X%X%X*X$X&X*Xi.>.:.;.v x h y y u u s M f a ,.1.A u 6 m Q C.P.XX{.{.#X#X#X-X-X%XoXoX%X%X-X-XoX[.[.XX#X=XoXXX",
"&X&X&X@X&X&X&X@X&X&X&X*X&X*X+X*X+Xj.1.>.>.n c d s $ $ u $ u u u k 3.6.v V m A ) P.XXXXXXoXXX@X$X-X;XXXXX$X$X;X$X{.).). X-X@X}.{.",
"&X@X@X@X&X@X&X@X&X*X&X$X@X&X&X$XOXj.u.4.:.j p d s u u u s y d d a ;.6.<.1.1.A ( F.XX[.[.{.{.#X#X$XoX{.{.{.$X$X X).L._.@X{.).L._.",
"@X@X@X@X@X@X X@X@X@X@XOX@X@X@X&XY.m.z.4.Z c h d y u u s y d y f a l 6.2.1.2.1.Q ) oX[.[.{.XX#X-X#X).).L.[.$X}.D.D.L.[.;X XH.H.).",
"@X].`.@X].@X@X@X@X@X@X@X@XOXOX$XY.f.p.z.u.Z z f s u u y s s d f z C <.6.6.,.w.m.{ h.XXXX{.{.#X#XD.D.J.L.[.;X X'.D.L.).-X-X#X)._.",
"].].{.{.].@X].@X].@XXXXXOXXX].OXR.e.b.7Xz.Z Z Z h d s s s y y s 6 0 { 0 ( 1.Z h.[.Z.G.[. X X;X@X).D.J.).}.;X;X X).).{.-X;X X{._.",
"].{.].`._.XX_.].].].XX].].XX].OXM.p.pX7XI I m , S K * e C d f = R 0 g.8 R E ;  .j.XX[.[. X#X;X;X;X X).).{.<X#X}.}.).@X-X-X{.).).",
"`.`.`.`._._.]._._._._.].].].XXW.z.6XsXW.r 8 H + H K * 0 C h S < I D I J r g.o V.w.*.#X X#X#X-X#X X X).}.#X<X#X X).}.#X-X|.}._.[.",
"`.`.`.`.`.`.`._._.`._.`.XXP.].R.t.[.0X%.H * S + S h * 8 K z C - 0 H { 0 t z.:  .v.h.{.XX#X;X-X;X|.{.).{.@X-X X}.).{.oX-X<X$X#X#X",
"'.`.`.K.K.`.`.K.K.`.`.`.`.`.Y.N.d.K.L.U w > H o S S + 8 I l K O @ r P 6 1 k.0 ' x.i.'.&X X;X;X$X X}.}.{.@X-X;X#X#XXXoX=X8X<X;X#X",
"'.`.`.K.K.K.`.K.`.P.P.`.Y.P.Y.z.@.o.U t U < L O H I 9 8 I k K > o . I J - k.m R @.p.@.#X X#X&X;X;X#X#X X X-X3X-X#X#XXX$X>X>X$X#X",
"`.K.K.K.K.K.K.K.`.K.K.`.`.P.k.l.C.W r r 8 F L O H S r o I p M 0 . . F H o u.J U A.p.! D.-X;X<X2X<X;X;X#X#X;X3X<X%XoXoX#X-X<X#X#X",
"F.K.K.K.K.F.K.K.K.K.K.P.`.z.u.+XC.' e U - 8 m o 0 J r . J h i H r @ e R . g.G t F.k.u.X.{.<X;X<X<X-X#X|.#X$X-X<X#XoX#X#X-X-X$X#X",
"S.K.F.K.K.F.K.S.K.K.K.K.].4.u.Y.$._ t e r O J * 0 J 8 @ D C f J E * 8 H @ { I 9 k.u.v.O.x.-X-X<X-X;X X X X#X-X1X$X#X#X#X-X-X#X#X",
"K.S.H.F.S.H.S.K.K.S.S.'.c.4.u.V.] t 9 U r 9 J 0 8 F H 9 0 K f 4 S m 0 _   H ~ * [ [ g.=.@._.-X-X<X#X X X X X-X2X%X#X#X#X-X%X{.XX",
"S.S.S.S.H.S.S.S.S.K.F.'.{ i.{ _ R e r _ r e > e , H H 0 % S g 2 8 , F J @ t _ 9 ] O.&.'.+.*.%X#X<X;X X{.{.#X-X<X$X#X#X$X-X).).{.",
"S.S.S.S.S.S.S.S.S.S.F.F.[ :.Q R R R e ` 9 R 1 F * e J q > G g J e r I S ] H { i.i.p.z.b.v.$.@X%X<X;X X{. X{.;X#X_.{.@X;XH.D.J.{.",
"A.A.A.A.A.A.A.S.S.A.F.&.J C I E e ` R $.] F ^ G H H I G ! M d f M K h z z v x :.<.2.3.7.y.l.].1X<X#X X{. X|. XH.H.}. X;X;X).).}.",
"A.A.A.A.A.A.A.A.A.A.K.+.0 M K @.X._ } O.X.& Z c c z z h i p d d i i f h x Z v b <.<.3.7.0.9.z.3X#X).)._._.;X}.'.). X X<X-X#X).{.",
"x.D.x.B.A.A.x.A.x.A.c.H < M C g.#.' W } #.4 C z z z z f f f d f f f f z c Z v v ,.<.2.3.0.y.p.@Xn.n.).).}.<X<X;X}. X X<X;X}.). X",
"D.B.x.B.A.x.A.A.A.Z.H * H S p i.#.'  .| X.e d Z C z z f f f f f f f f z x Z v v :.>.<.2.9.7.7.R.;X).'.). X<X;X|. X X|.<X;X}.).{.",
"x.x.x.D.x.x.A.x.B.c.H G K z h w.$.` o.#.| R f Z v c z f f f d i i h i p k j j c Z ,.4.e.w.J I p.<X|.). X X<X<X;X{. X;X2X<X X X X",
"x.x.x.x.x.A.x.x.A.w.c a v C d 5.#.| | %.| [ G x b K c p h g f M M S K S { { g.[ $.V.).n.8 8 8.y.`.|._._. X;X<X X_. X#X3X2X<X#X;X",
"x.x.x.x.x.x.x.x.k.x d f Z C d ,. .X.' &.#.[ ' ! g.c.g.@.@.+.+.+.} o.O.O.&.=.A.o.$.S.O.O * 5.9.9.z.@X).{. X<X<X;X|.|.|.-X4X1X&X%X",
"x.x.x.x.x.A.x.F.u.k C f Z f y w.c.X._ o.&.+.' _ ` &.D.D.=.&.#.o.} ` X.o.&.=.x.o.#.} + o d 2.8.0.7.].#X X|.;X8X<X&X;X#X;X2X1X;X-X",
"B.B.B.x.B.B.B.C.5.c C p P G H F.C. ._ ` $.$.| W E W O.n.n.=.$.#.X.} } O.&.=.=.&._ X @ u c l ;.8.9.e.#X#X|.#X<X2X;X#X#X#X>X2X;X-X",
"x.x.B.B.B.B.A.Z.Z k g M v.} _ V.C.o.` _ O.*.$.[ W R R X.B.B.x.*.#.X.` o.&.&.'.] @ X d c j k c l 7.9.l.;X X;X;X-X#X{.oX#X>X<X$X$X",
"=.x.B.B.B.V.S.v.Z P ! o.G.W W B.C.#.X._ o.%.%.$.` W R Y +.B.B.n.=.O.} } O.x.X.@ @ s b v v v n x ;.9.0.].|.#X#X-X#X X X;X<X;X#X#X",
"x.=.=.B.B.V.V.@.$ H { %.B.R W c.S.&.` t w | *.C.#._ ' R w ` B.B.B.=.O.} &.O.O @ $ c c v v v :.<.<.3.9.z.#X|.;X>X;X{.}.;X;X)._.{.",
"=.=.x.=.B.B.A.i.p $ # ' %.E ' n.F.X..   . O e ` n.&.' ` _ w W *.B.B.=.O.` + + s i p k l j j j n >.8.9.7.F.oX*X-X X).).;X).n.H.}.",
"&.=.*.=.=.=.V.5.l v $ 4 o.R W *.S.r . - o o o . 9 o.&.` | ` w R &.D.D.$.o @ s v p h k j j c c c n 2.0.0.(.(.*X{.H.L.}.;X;X_.).{.",
"$.&.&.&.&.*.g.,.j k p G #.R } *.A.r o e o o o O . . ] $.X.#.[ w w #.&.> + s :.v k c j x x x c j b <.2.4.~./.(.n.n.J.}.<X;X X).}.",
"$.$.$.$.&.&.g.n j k p m _ ] } %.B.t o O o o o o o o @ ' $.O.&.| w 8 O X s :.b v k c c l x c c n :.n >.S -.~./..X).).{.<X;X).).}."
};
