/* XPM */
static char *_bf7832e0a5841f4811c8d599d267a0bleuDrMbGQHWJbrmi[] = {
/* columns rows colors chars-per-pixel */
"64 64 19 1 ",
"  c black",
". c #004000",
"X c #400040",
"o c #402040",
"O c #406040",
"+ c #602080",
"@ c #606080",
"# c #0060C0",
"$ c #008080",
"% c #608080",
"& c #60A080",
"* c #0080C0",
"= c #A08080",
"- c #A0A0A4",
"; c #A0E080",
": c #C0A0C0",
"> c #C0DCC0",
", c #FFFBF0",
"< c white",
/* pixels */
"                    --,>>>>>:>-:---=-==@%@O@O@                  ",
"                  ><<<><>,>>>>:>:-:-@;=%%@@Ooooo                ",
"                 ,<<<<,><<<<,>>->:----===O@O+Oo.o               ",
"                ><><<<<<<>>>:>-:---=@%@@@@@oOooooo              ",
"                >><,<<<><>>>->->:--=%=%%@@OOooo oo              ",
"                >>><><<,<,><>>:>-:--=%@@OO+ooo.ooo              ",
"                 >:<,,<<,><<>>>>:---==%@@Oooo.Xoo               ",
"                   -<><<<<,>>:---=%@@O@Oooo.X.o                 ",
"                    -:-<<<<>>>:--==%%@oOooo.oo                  ",
"                     -:<><>,>:-:=%=@@@O+OoXoo                   ",
"                     -;,<<<>>>:--=%%@O@Ooo..o                   ",
"                     =:<<<>>>:--=-=@%@oooooXo                   ",
"                     -><<<<,>:;=-:%%@O@Oooo.o                   ",
"                     -:<<<>>>>:--%=@@O@Ooo.Xo                   ",
"                     --<<<<>>:---==%@@@Oooo.o                   ",
"                     -:>,>:::--=%@@@OO@Xo.Xoo                   ",
"                     -=-:---%=%@@%@Oooo.Xo.X.                   ",
"                      ><><<<<>>>:--==%@@Oooo                    ",
"                     >><<<<>>::--=%%@@O@Ooo.o                   ",
"                     :><<<,>>>--=%=@@O@ooo.Xo                   ",
"                     -:<<<<>-<:---@&@@OOooo.o                   ",
"                     -:<<<>,>>:-===@@@O+ooooo                   ",
"                     --<<<<>>>:--=%%@@OoOo  o                   ",
"                     -:<<<>>>:;--=%%@@OoOo.oo                   ",
"                     --<<<<:<::--==%@O@oooX.o                   ",
"                     -><<<>>>:-:=%-@@@Oo@o.oo                   ",
"                     =:<<<<>:>:--==%@O@Oooo o                   ",
"                     -:<<<>>>:--=-%@%@oOooooo                   ",
"                     %->,>>>:---%@@@+Ooo.X.X.                   ",
"                      %---==%%@@@%@OOoooX                       ",
"                     -><<<<<:,>>:--==%@@OOooo                   ",
"                     -:<<<>><;:--=%@@@Oooo.oo                   ",
"                     -:<<<<>>:-:%-=@%O@OoO  o                   ",
"                     -:<<<>,-<---=%%@@o@ooooo                   ",
"                     --<<><>>>:--==%@O@oOXo.o                   ",
"                     -:<<<<>::-:=%=@@@OOoo.X.                   ",
"                     -:<<<<-<>---=%%@@@oOoXoo                   ",
"                     --<<<><>:-:-=%=@OO+oo.oo                   ",
"                     -:<<><>>>:-=-%%@@oOooo o                   ",
"                     -:<<<<>>->--=%@@%O+Oo.oo                   ",
"                     --<<<,>,>:--%=%@@OOXOX.o                   ",
"                     %:<<><>>:--==%@%o@oOoo O                   ",
"                      ->>>->:--@-%@@@oOo o o                    ",
"                     -<::>:-%=@@@@@OoOoXo.oo                    ",
"                     =><><<<<>>:;=-==%@O@o.oo                   ",
"                     -:<<<>>>::--%-@@@O@oooXo                   ",
"                     -:<<<:<>:->==%%@@Ooooo.o                   ",
"                     -:<<<<>>:-:-%-@%O@oOo oo                   ",
"                     --<<<<>>>:--==@@@@Oooo.o                   ",
"                     -:<<<>,>--:-=%@%@ooOo oo                   ",
"                     --<<<<>>:>--%=%@@O@ooo.o                   ",
"                     -:<<<:<>:-:-=%@@O@oOoXoo                   ",
"                     =>><<><>;:--==%@O@Ooo..o                   ",
"                    :>:<<<>>>:---=%%@@OooooX.o                  ",
"                   -,><<<<,,>>:--==%@@+OoOooX.oo                ",
"                 >:<<<<<><<<>>>::---=%%@@oOo.oXoooOo@O@@@@@     ",
"                :>><><<>,>>>>>:>-:--==%@O@ooo.o.oooOo@OO@O%@@   ",
"                >,<<<<<,<:>>:>-:--=-%%@@@@O@ooX.ooooooo@O@O@@@  ",
"                ><><<<<<<<>>:>-:---=%=%%@%@OOoooooOoOoOOo@O@@%  ",
"                 <<<<<><><<<>>>>::-:-===%@@o@Oo.oooo@o@+O@@@%   ",
"                  -<,>,>,>>>>>:->:-=-=%-@%@@OooooOo@OO@O@@@     ",
"                    --,>>>>:>:;:----=%=@%@@Oo@O@@@@@@@@@%       ",
"                         -:---======@%@%@@OoO@@@%               ",
"##*###*###*###*###*###*########$#*#*#*#*######*##*#*#*#*##*##*##"
};
