/* XPM */
static char *_6b79e6182454f04af78cace32ad1d4dmpwXotneoGd2fdgH[] = {
/* columns rows colors chars-per-pixel */
"64 64 13 1 ",
"  c black",
". c #402000",
"X c #404000",
"o c #604000",
"O c #202040",
"+ c gray25",
"@ c #604040",
"# c #606040",
"$ c #804040",
"% c #806040",
"& c #A06040",
"* c #606080",
"= c #808080",
/* pixels */
"                                                                ",
"                                                                ",
"                                                                ",
"                                                                ",
"                                                                ",
"                                                                ",
"                                                                ",
"                                                                ",
"                                                                ",
"                                                                ",
"                                                                ",
"                                                                ",
"                                                                ",
"                                                                ",
"                                                                ",
"                                                                ",
"                                                                ",
"                                                                ",
"                                                                ",
"                                                                ",
"                                                                ",
"                                                                ",
"                                                                ",
"                                                                ",
"                                                                ",
"                                                                ",
"                                                                ",
"                                                                ",
"                                                                ",
"                                                                ",
"                                                                ",
"                       ***************====                      ",
"                     **+++++++++++#####***=*                    ",
"                    *=++OOOOOOOOOOO+++++++*+*                   ",
"                    **=====*********####+++++                   ",
"                   %%**==*****####++++++++++XX                  ",
"                   $%%%%$$$$@@@@ooooooXXXXXXoX                  ",
"                  %$%%&&%&&&%%&&%%%@o$@@X@oXXoX                 ",
"                  $%$&&%&&&&%$&&%%%@o$$@oo@oXoX                 ",
"                  $%$&&%&&&&%%&&%%%$o$$$@X@oXo+                 ",
"                 +#*=*&%&&&&%&&%%%$$o$$$@X+++++                 ",
"                 +***====*********#####++++++++X                ",
"                 +*****=****####+++++++++++++++X                ",
"                 $@+#*******####++++++++++++++oX                ",
"                 $%$&%%o%%$$X@@@oooo.oXXXXXooXoX                ",
"                 $%$&&&%&&&&%&%%%%$$o$$$@oXooXoX                ",
"                 $%$&&&%&&&&%&%%%%$$o$$$@oXooXoX                ",
"                 $%$&&&%&&&&$&%%%%$$o$$$@oXooXoX                ",
"                 $%$&&&%&&&&$&%%%%$$o$$$@oXooXoX                ",
"                 $%$&&&%&&&&$&%%%%$$o$$$@oXooXoX                ",
"                 $%$&&&%&&&&$&%%%%$$o$$$@oXooXoX                ",
"                 *%$&&&%&&&&$&%%%%$$o$$$@oXooX++                ",
"                 *===*&%&&&&$&%%%%$$o$$$@oX+++++                ",
"                 #***===**********#####++++++++                 ",
"                 +#***=*****####+++++++++++++++.                ",
"                  @+###*****####+++++++++++...Xo                ",
"                  $$$$$$$$oo.ooooooo.oooo..oXoXo                ",
"                  $%$&&%&&&%@%%%%%$$o$$@oXooXoX                 ",
"                   $%%&$&&&%@$%%%%$oo$$@oXooXoX                 ",
"                   *%$%%$&&%@$%%%$$oo$$@oXoXoX                  ",
"                   *===%$%%%$@$$$$$oo$@oXoXXX+                  ",
"                    ***====*****###++++++++OO                   ",
"                     *******####++++++++++OO                    ",
"                       ++++++++++++++OOOOO                      "
};
